<svg xmlns="http://www.w3.org/2000/svg" viewBox="0 0 116.691 27.288626" height="27.289" width="116.691"><defs><clipPath id="a"><path d="M0 21.831h93.353V0H0v21.831z"/></clipPath></defs><g clip-path="url(#a)" transform="matrix(1.25 0 0 -1.25 0 27.289)"><path d="M93.353.33c-11.36 12.873-27.971 21-46.49 21-18.517 0-35.127-8.127-46.488-21" fill="#fff"/><path d="M88.39 5.35a55.76 55.76 0 0 1-.371.333" fill="none" stroke="#83bb7d" stroke-miterlimit="10"/><path d="M87.266 6.343C76.416 15.68 62.303 21.33 46.864 21.33c-18.157 0-34.481-7.815-45.82-20.254" fill="none" stroke="#83bb7d" stroke-miterlimit="10" stroke-dasharray="1.001,1.001"/><path d="M.707.704A59.054 59.054 0 0 1 .375.33" fill="none" stroke="#83bb7d" stroke-miterlimit="10"/><path d="M93.353.33l-4.195 9.896-1.19-4.548-4.54-1.221L93.354.33z" fill="#83bb7d"/></g></svg>