<svg xmlns="http://www.w3.org/2000/svg" viewBox="0 0 165.461 217.65715" height="217.657" width="165.461"><path d="M57.931 63.548a3.328 3.328 0 1 0 5.59 3.614c.518-.802 12.569-19.807 1.256-34.23-7.766-9.9 3.209-23.403 3.375-23.605a3.328 3.328 0 1 0-5.11-4.266c-.148.177-3.641 4.391-5.871 10.267-3.129 8.242-2.31 15.75 2.368 21.713 8.372 10.673-1.511 26.355-1.608 26.507zm45.309 0a3.327 3.327 0 0 0 2.791 5.136 3.326 3.326 0 0 0 2.799-1.522c.518-.802 12.568-19.807 1.256-34.23-7.766-9.9 3.209-23.403 3.376-23.605a3.326 3.326 0 0 0-.421-4.684 3.328 3.328 0 0 0-4.689.418c-.146.177-3.641 4.391-5.871 10.267-3.129 8.242-2.311 15.75 2.367 21.713 8.371 10.673-1.511 26.355-1.608 26.507zm-23.317 3.566a3.328 3.328 0 1 0 5.15 4.217c.169-.206 4.162-5.13 6.369-12.244 3.021-9.73 1.31-18.86-4.951-26.399C77.45 21.8 89.801 5.623 89.989 5.38a3.328 3.328 0 0 0-5.24-4.104c-.654.835-15.879 20.613-3.379 35.667 11.516 13.868-.916 29.52-1.447 30.172zm82.209 20.697H3.329A3.329 3.329 0 0 0 0 91.14v12.803a3.328 3.328 0 0 0 2.989 3.311c.179.031 11.027.05 11.027.05-.244 7.095.55 26.022 14.15 41.32 4.829 5.433 10.745 9.808 17.707 13.125l-19.104 51.42a3.328 3.328 0 1 0 6.24 2.32l19.014-51.18c8.016 2.882 17.207 4.56 27.528 5.025v41.143a3.323 3.323 0 0 0 3.18 3.32 3.324 3.324 0 0 0 3.18-3.32v-41.143c10.321-.467 19.512-2.145 27.528-5.026l19.014 51.18a3.331 3.331 0 0 0 4.279 1.961 3.33 3.33 0 0 0 1.961-4.28l-19.104-51.42c6.962-3.317 12.878-7.692 17.707-13.125 13.601-15.297 14.394-34.225 14.149-41.32 0 0 10.849-.02 11.027-.05a3.327 3.327 0 0 0 2.989-3.31V91.138a3.328 3.328 0 0 0-3.329-3.328zm-29.863 56.446c-10.033 11.246-25.613 17.428-46.358 18.416v-12.209a3.325 3.325 0 0 0-3.18-3.32 3.326 3.326 0 0 0-3.18 3.32v12.21c-20.746-.989-36.326-7.17-46.359-18.417-12.131-13.598-12.696-31.056-12.499-36.954H144.77c.195 5.897-.37 23.356-12.501 36.954zm26.535-43.644H6.656V94.47h152.148v6.144z" fill="#7cb342"/></svg>