<svg xmlns="http://www.w3.org/2000/svg" width="297.878" height="61.085" viewBox="0 0 297.87751 61.085128"><defs><clipPath id="a"><path d="M0 263.695h1285.889V0H0v263.695z"/></clipPath><clipPath id="b"><path d="M26.845 182.011h67.3V223.7h-67.3v-41.689z"/></clipPath><clipPath id="c"><path d="M0 263.695h1285.889V0H0v263.695z"/></clipPath><clipPath id="d"><path d="M317.008 36.544h51.393v51.514h-51.393V36.544z"/></clipPath><clipPath id="e"><path d="M0 263.695h1285.889V0H0v263.695z"/></clipPath></defs><g clip-path="url(#a)" transform="matrix(.23165 0 0 -.23165 0 61.085)"><path d="M452.745 203.046c0-4.444.801-8.596 2.407-12.453 1.604-3.86 3.826-7.192 6.666-10 2.839-2.81 6.171-5.015 9.999-6.62 3.827-1.605 7.93-2.406 12.314-2.406 4.752 0 8.966.555 12.638 1.666 3.672 1.11 6.62 2.963 8.842 5.556h-4.536c-1.976 0-3.829.369-5.556 1.11a13.751 13.751 0 0 0-4.49 3.056c-1.265 1.296-2.254 2.823-2.963 4.583-.71 1.758-1.065 3.625-1.065 5.6 0 1.913.355 3.735 1.065 5.464a14.085 14.085 0 0 0 2.963 4.536c1.264 1.297 2.761 2.329 4.49 3.102 1.727.77 3.58 1.157 5.556 1.157l23.331-.185c1.974 0 3.827-.371 5.555-1.111 1.727-.741 3.241-1.73 4.536-2.963 1.297-1.235 2.33-2.717 3.102-4.444.772-1.73 1.158-3.61 1.158-5.648.122-7.221-1.266-13.903-4.166-20.044-2.903-6.143-6.852-11.451-11.852-15.925-4.999-4.476-10.832-7.962-17.498-10.462s-13.735-3.75-21.203-3.75c-5.554 0-10.894.71-16.017 2.13-5.124 1.419-9.906 3.425-14.35 6.017a59.409 59.409 0 0 0-12.129 9.352 59.354 59.354 0 0 0-9.351 12.128c-2.593 4.445-4.599 9.213-6.018 14.305-1.421 5.092-2.13 10.416-2.13 15.97 0 5.494.695 10.8 2.083 15.925 1.389 5.123 3.364 9.922 5.926 14.397a62.8 62.8 0 0 0 9.212 12.314 58.317 58.317 0 0 0 11.944 9.583c4.382 2.653 9.12 4.706 14.212 6.157 5.092 1.449 10.415 2.176 15.971 2.176 8.64 0 16.51-1.498 23.609-4.491 7.097-2.994 13.641-7.452 19.628-13.378 1.357-1.36 2.375-2.886 3.055-4.583a13.975 13.975 0 0 0 1.019-5.231c0-1.791-.34-3.565-1.019-5.324a13.367 13.367 0 0 0-3.055-4.676c-1.42-1.358-2.995-2.392-4.722-3.101a15.24 15.24 0 0 0-5.324-1.157 14.023 14.023 0 0 0-5.37.879c-1.759.648-3.349 1.68-4.768 3.102-3.272 3.147-6.821 5.43-10.647 6.85-3.828 1.42-7.839 2.13-12.036 2.13-4.198 0-8.18-.802-11.944-2.407-3.765-1.606-7.052-3.811-9.86-6.62-2.809-2.81-5.046-6.126-6.712-9.953-1.667-3.827-2.5-7.932-2.5-12.313m131.841 31.201v-16.758h16.48c.925 0 1.881.246 2.87.74a9.792 9.792 0 0 1 2.684 1.992c.802.833 1.45 1.789 1.945 2.87.494 1.079.741 2.176.741 3.287a6.48 6.48 0 0 1-.74 3.009 8.589 8.589 0 0 1-1.946 2.5 10.54 10.54 0 0 1-2.638 1.712c-.958.43-1.898.648-2.824.648h-16.572zm53.328-8.703c0-3.333-.432-6.527-1.296-9.583a37.98 37.98 0 0 0-3.61-8.61 35.707 35.707 0 0 0-5.556-7.314 36.963 36.963 0 0 0-7.22-5.694l15.46-29.257c.987-1.73 1.575-3.518 1.76-5.37a13.65 13.65 0 0 0-.51-5.37 14.942 14.942 0 0 0-2.5-4.814 13.576 13.576 0 0 0-4.212-3.611c-1.729-.988-3.535-1.59-5.416-1.805-1.883-.216-3.69-.094-5.416.37a14.006 14.006 0 0 0-4.816 2.36c-1.48 1.112-2.717 2.53-3.703 4.26l-20.275 37.867h-6.018V158.05c0-1.976-.37-3.83-1.112-5.556a13.775 13.775 0 0 0-3.055-4.49c-1.297-1.265-2.824-2.254-4.583-2.963-1.759-.71-3.627-1.065-5.602-1.065-1.976 0-3.828.355-5.554 1.065a14.057 14.057 0 0 0-4.537 2.963c-1.296 1.264-2.315 2.762-3.056 4.49-.74 1.727-1.11 3.58-1.11 5.556v90.363c0 1.974.37 3.81 1.11 5.509a13.953 13.953 0 0 0 3.056 4.444 14.746 14.746 0 0 0 4.537 3.009c1.726.74 3.578 1.11 5.554 1.11h30.739c5.06 0 9.844-.988 14.35-2.962 4.505-1.976 8.426-4.645 11.76-8.008 3.332-3.366 5.971-7.285 7.915-11.76s2.916-9.211 2.916-14.211m32.126-81.568c-1.852.186-3.58.648-5.185 1.388a13.438 13.438 0 0 0-4.166 2.964 13.919 13.919 0 0 0-2.777 4.305c-.682 1.635-1.019 3.409-1.019 5.324v90.27c0 1.913.37 3.734 1.11 5.463a14.744 14.744 0 0 0 3.01 4.536c1.263 1.296 2.761 2.33 4.49 3.102 1.727.771 3.611 1.157 5.647 1.157h44.256c1.975 0 3.826-.37 5.556-1.111a13.813 13.813 0 0 0 4.49-3.055 14.098 14.098 0 0 0 2.964-4.537c.708-1.729 1.064-3.58 1.064-5.555 0-1.976-.356-3.842-1.064-5.602-.711-1.758-1.698-3.286-2.964-4.582a13.813 13.813 0 0 0-4.49-3.055c-1.73-.741-3.58-1.112-5.555-1.112h-29.904v-17.035h20.368c1.975.061 3.826-.264 5.556-.972a13.737 13.737 0 0 0 4.536-3.01 15.017 15.017 0 0 0 3.1-4.536c.772-1.729 1.159-3.581 1.159-5.555 0-1.977-.387-3.813-1.158-5.509-.772-1.699-1.805-3.148-3.101-4.351-1.297-1.204-2.81-2.146-4.536-2.824-1.73-.681-3.581-1.019-5.556-1.019h-20.368v-16.573h29.904c1.975 0 3.826-.386 5.556-1.157 1.726-.773 3.223-1.806 4.489-3.102 1.266-1.296 2.253-2.823 2.964-4.583a14.86 14.86 0 0 0 1.064-5.601c0-1.976-.356-3.828-1.064-5.555a14.098 14.098 0 0 0-2.964-4.537 13.228 13.228 0 0 0-4.49-3.009c-1.73-.71-3.58-1.033-5.555-.972H670.04zm86.934 0c-1.852.186-3.58.648-5.185 1.388a13.426 13.426 0 0 0-4.166 2.964 13.94 13.94 0 0 0-2.778 4.305c-.68 1.635-1.017 3.409-1.017 5.324v90.27c0 1.913.37 3.734 1.11 5.463a14.723 14.723 0 0 0 3.01 4.536c1.263 1.296 2.761 2.33 4.49 3.102 1.727.771 3.61 1.157 5.647 1.157h44.256c1.975 0 3.826-.37 5.555-1.111a13.807 13.807 0 0 0 4.49-3.055 14.095 14.095 0 0 0 2.963-4.537c.71-1.729 1.065-3.58 1.065-5.555 0-1.976-.356-3.842-1.065-5.602-.71-1.758-1.698-3.286-2.963-4.582a13.807 13.807 0 0 0-4.49-3.055c-1.729-.741-3.58-1.112-5.555-1.112h-29.905v-17.035h20.37c1.973.061 3.825-.264 5.554-.972a13.716 13.716 0 0 0 4.536-3.01 14.981 14.981 0 0 0 3.101-4.536c.772-1.729 1.16-3.581 1.16-5.555 0-1.977-.388-3.813-1.16-5.509-.77-1.699-1.804-3.148-3.1-4.351-1.297-1.204-2.81-2.146-4.537-2.824-1.729-.681-3.58-1.019-5.555-1.019h-20.369v-16.573h29.905c1.975 0 3.826-.386 5.555-1.157 1.727-.773 3.224-1.806 4.49-3.102 1.265-1.296 2.253-2.823 2.963-4.583.71-1.758 1.065-3.627 1.065-5.601 0-1.976-.356-3.828-1.065-5.555a14.095 14.095 0 0 0-2.963-4.537 13.223 13.223 0 0 0-4.49-3.009c-1.729-.71-3.58-1.033-5.555-.972h-45.367zm102.397 62.403v-48.33c0-1.976-.37-3.828-1.11-5.555-.742-1.73-1.76-3.226-3.056-4.49-1.297-1.266-2.825-2.254-4.584-2.963-1.759-.71-3.626-1.065-5.6-1.065-1.976 0-3.828.355-5.555 1.065a14.062 14.062 0 0 0-4.537 2.963 13.764 13.764 0 0 0-3.055 4.49c-.741 1.727-1.111 3.579-1.111 5.555v89.9c0 1.975.37 3.827 1.11 5.555a13.8 13.8 0 0 0 3.055 4.49 14.128 14.128 0 0 0 4.537 2.964c1.727.709 3.58 1.065 5.555 1.065h.185c.802 0 1.667-.093 2.592-.278a14.209 14.209 0 0 0 5.464-2.268 14.358 14.358 0 0 0 4.073-4.213l41.107-55.83v48.979c0 1.974.386 3.826 1.158 5.555a14.042 14.042 0 0 0 3.148 4.49 14.518 14.518 0 0 0 4.63 2.963c1.76.709 3.624 1.064 5.601 1.064 1.974 0 3.81-.355 5.508-1.064a13.72 13.72 0 0 0 4.445-2.963c1.264-1.266 2.268-2.763 3.008-4.49.743-1.73 1.113-3.581 1.113-5.555v-90.364c0-3.21-.926-6.018-2.778-8.425-1.852-2.407-4.228-4.074-7.13-5a13.645 13.645 0 0 0-1.805-.462 10.506 10.506 0 0 0-1.99-.186h-.833c-1.976 0-3.812.37-5.51 1.11a14.32 14.32 0 0 0-4.444 3.01 14.283 14.283 0 0 0-3.008 4.444c-.742 1.697-1.112 3.533-1.112 5.509v41.386l24.074-32.682c1.17-1.791 1.912-3.813 2.22-6.065.309-2.254.232-4.444-.231-6.573a15.503 15.503 0 0 0-2.545-5.787c-1.236-1.73-2.841-2.964-4.815-3.703a19.788 19.788 0 0 0-1.851-.463 9.8 9.8 0 0 0-1.945-.186h-.835c-.926.06-1.915.216-2.963.463-1.05.246-2.083.602-3.102 1.065a18.265 18.265 0 0 0-2.916 1.666c-.926.648-1.667 1.403-2.223 2.269l-41.94 56.94zM120.23 62.598c0-33.201-26.914-60.116-60.114-60.116C26.915 2.482 0 29.397 0 62.598c0 33.2 26.915 60.115 60.116 60.115 33.2 0 60.115-26.915 60.115-60.115m141.272-.862c0-33.2-26.915-60.115-60.116-60.115-33.2 0-60.115 26.915-60.115 60.115 0 33.201 26.915 60.115 60.115 60.115 33.201 0 60.116-26.914 60.116-60.115" fill="#6bc43c"/><path d="M402.82 203.092c0-33.201-26.915-60.115-60.115-60.115-33.201 0-60.116 26.914-60.116 60.115 0 33.2 26.915 60.116 60.116 60.116 33.2 0 60.115-26.915 60.115-60.116" fill="#507e8d"/><path d="M120.61 203.58c0-33.202-26.914-60.116-60.114-60.116C27.295 143.464.38 170.378.38 203.58s26.915 60.116 60.116 60.116c33.2 0 60.115-26.915 60.115-60.116m140.892-.3c0-33.2-26.915-60.116-60.116-60.116-33.2 0-60.115 26.915-60.115 60.116s26.915 60.115 60.115 60.115c33.201 0 60.116-26.914 60.116-60.115M402.82 61.736c0-33.2-26.915-60.115-60.115-60.115-33.201 0-60.116 26.915-60.116 60.115 0 33.201 26.915 60.115 60.116 60.115 33.2 0 60.115-26.914 60.115-60.115" fill="#6bc43c"/></g><g clip-path="url(#b)" transform="matrix(1.25 0 0 -1.25 0 61.086)"><path d="M84.251 197.813c-1.793-1.326-3.72-2.772-5.548-4.585l-.524 14.487c.824 2.613 2.788 6.479 7.208 6.479 3.818 0 6.097-2.167 6.097-5.8 0-5.238-3.192-7.596-7.233-10.581m1.136 18.99c-3.37 0-5.76-1.657-7.398-3.8l-.096 2.959c0 1.441-1.009 2.745-2.253 2.745H50.864c-1.244 0-2.253-1.304-2.253-2.745l-.278-7.845-14.71 11.844c.695 1.664.775 3.05.062 3.547-1.026.713-3.277-.765-5.026-3.282-1.749-2.516-2.335-5.142-1.309-5.856.787-.546 2.29.191 3.736 1.693l16.743-22.032-.344-9.217c0-1.441 1.008-2.646 2.253-2.646h27.028c1.243 0 2.252 1.205 2.252 2.646l-.18 4.847c2.113 2.601 4.567 4.357 6.963 6.128 4.265 3.151 8.292 6.089 8.292 12.642 0 5.029-3.499 8.372-8.706 8.372" fill="#fff"/></g><g clip-path="url(#c)" transform="matrix(.23165 0 0 -.23165 0 61.085)"><path d="M228.574 207.99l-4.587 4.587a1.142 1.142 0 0 1-.81.335h-1.148v1.147c0 .305-.122.596-.335.811l-9.174 9.174c-1.839 1.84-4.922 4.922-11.133 4.922-6.206 0-9.052-2.846-11.132-4.922a1.146 1.146 0 1 1 .812-1.958c9.25 0 10.32-3.927 10.32-6.88 0-2.455-1.389-4.324-2.277-5.276l7.492-7.492c2.028 1.371 4.91 2.99 6.253 2.87v-1.57c0-.305.121-.597.334-.812l5.735-5.733c.214-.214.506-.335.811-.335h.04c.318.008.616.151.822.39l8.028 9.173c.4.457.376 1.14-.05 1.57M175.6 186.453c-1.117-1.117-1.734-2.604-1.734-4.32a5.923 5.923 0 0 1 5.916-5.916c1.663 0 3.26.707 4.378 1.935l20.707 22.777-7.394 7.397-21.874-21.873z" fill="#fff"/><path d="M88.655 68.32a2.019 2.019 0 0 1 0 2.855l-3.031 3.031a2.02 2.02 0 0 1-2.563.242l-6.372-4.33 4.305 6.415a2.02 2.02 0 0 1-.25 2.553l-6.573 6.574a2.023 2.023 0 0 1-2.305.391l-1.136-.547.544 1.208c.345.765.18 1.664-.413 2.257l-2.064 2.064a2.02 2.02 0 0 1-2.855 0l-16.03-16.029L72.626 52.29l16.029 16.03zM40.416 38.964A2.854 2.854 0 1 0 36.38 43a2.854 2.854 0 0 0 4.035-4.037m8.147 34.897l-4.64-4.64a2.017 2.017 0 0 1 0-2.856l4.402-4.402a3.918 3.918 0 0 0 1.128-3.211 3.925 3.925 0 0 0-1.8-2.891c-12.933-8.244-14.138-9.45-14.535-9.845-2.843-2.844-2.843-7.471 0-10.314 2.847-2.845 7.473-2.841 10.313 0 .397.397 1.602 1.603 9.847 14.535a3.912 3.912 0 0 0 2.889 1.796 3.916 3.916 0 0 0 3.213-1.124l4.4-4.402a2.02 2.02 0 0 1 2.857 0l4.64 4.64L48.562 73.86z" fill="#efeeef"/><path d="M221.238 43.198c-.882-.882-1.927-1.324-3.134-1.324-1.208 0-2.254.441-3.135 1.324-.882.881-1.323 1.927-1.323 3.134 0 1.207.441 2.253 1.323 3.135.881.881 1.927 1.323 3.135 1.323 1.207 0 2.252-.442 3.134-1.323.882-.883 1.324-1.928 1.324-3.135 0-1.207-.442-2.253-1.324-3.134m-29.88 20.966h-13.374v1.044c0 .302.105.557.314.766l6.791 6.791c.21.208.464.313.766.313h5.503v-8.914zm-1.324-20.966c-.882-.882-1.927-1.324-3.134-1.324-1.208 0-2.253.441-3.135 1.324-.882.881-1.323 1.927-1.323 3.134 0 1.207.442 2.253 1.323 3.135.882.881 1.927 1.323 3.135 1.323 1.207 0 2.252-.442 3.134-1.323.883-.882 1.324-1.928 1.324-3.135 0-1.207-.44-2.253-1.324-3.134m40.782 42.593c-.44.44-.964.661-1.567.661h-35.662a2.143 2.143 0 0 1-1.567-.66c-.44-.443-.662-.965-.662-1.569v-6.686h-5.572c-.628 0-1.306-.15-2.038-.453-.73-.303-1.317-.673-1.759-1.115l-6.895-6.895a4.704 4.704 0 0 1-.783-1.045 6.286 6.286 0 0 1-.488-1.06c-.105-.316-.18-.745-.226-1.29a33.927 33.927 0 0 1-.088-1.203c-.01-.255-.01-.696 0-1.323.012-.627.018-1.033.018-1.22V50.79c-.603 0-1.126-.22-1.567-.662a2.136 2.136 0 0 1-.662-1.567c0-.347.046-.656.14-.923.092-.266.25-.48.47-.644.22-.163.412-.296.574-.4.163-.105.436-.175.82-.209.382-.036.643-.059.782-.07.14-.012.435-.012.888 0 .453.011.714.017.784.017h2.23c0-2.46.87-4.562 2.61-6.303 1.742-1.74 3.843-2.612 6.304-2.612 2.461 0 4.562.871 6.304 2.612 1.741 1.741 2.612 3.843 2.612 6.303h13.373c0-2.46.87-4.562 2.611-6.303 1.741-1.74 3.843-2.612 6.304-2.612 2.461 0 4.562.871 6.303 2.612 1.742 1.741 2.612 3.843 2.612 6.303.07 0 .33-.006.783-.018.453-.01.75-.01.888 0 .14.012.402.035.785.071.382.034.655.104.817.21.163.103.354.236.575.4.221.162.377.377.471.643.093.267.14.576.14.923v35.661c0 .604-.22 1.126-.662 1.57" fill="#fff"/></g><g clip-path="url(#d)" transform="matrix(1.25 0 0 -1.25 0 61.086)"><path d="M346.388 42.78l-4.696 4.695 4.61 6.874-6.873-4.61-3.953 3.952 2.935 4.377-4.377-2.935-4.482 4.483 3.56 5.31-5.31-3.56-4.68 4.68 8.499 5.44 20.209-20.209-5.442-8.497zm20.97 44.236a3.43 3.43 0 0 1-4.844 0l-13.648-13.648-8.112 8.112a5.26 5.26 0 0 1-7.442 0l-5.843-5.842.729-.728-10.101-6.468a2.362 2.362 0 0 1-.396-3.662l27.422-27.422a2.362 2.362 0 0 1 3.662.397l6.467 10.1.729-.728 5.842 5.842a5.262 5.262 0 0 1 0 7.442l-8.112 8.113 13.648 13.648a3.428 3.428 0 0 1 0 4.844" fill="#fff"/></g><g clip-path="url(#e)" transform="matrix(.23165 0 0 -.23165 0 61.085)"><path d="M301.8 205.757c0 1.755.343 3.417 1.033 4.983a13.357 13.357 0 0 0 2.8 4.117 13.158 13.158 0 0 0 4.116 2.783 12.41 12.41 0 0 0 4.983 1.017 12.46 12.46 0 0 0 3.767-.567c1.2-.378 2.333-.9 3.4-1.566a13.502 13.502 0 0 0 3.333 1.566c1.2.378 2.467.567 3.8.567 1.778 0 3.478-.34 5.101-1.017a13.925 13.925 0 0 0 4.283-2.783 13.644 13.644 0 0 0 2.95-4.117 11.616 11.616 0 0 0 1.1-4.983V192.29a5.56 5.56 0 0 0-.467-2.283 6.014 6.014 0 0 0-1.25-1.833 5.792 5.792 0 0 0-1.833-1.234c-.7-.3-1.45-.45-2.25-.45a5.976 5.976 0 0 0-4.2 1.684 5.648 5.648 0 0 0-1.25 1.833c-.3.7-.45 1.46-.45 2.283v13.167a.733.733 0 0 1-.167.45 1.75 1.75 0 0 1-.383.367 1.83 1.83 0 0 1-.483.233 1.623 1.623 0 0 1-.467.083c-.312 0-.584-.105-.817-.316a1.133 1.133 0 0 1-.383-.784v-3.766c0-.823-.162-1.595-.483-2.317a6.095 6.095 0 0 0-1.3-1.884 5.93 5.93 0 0 0-1.9-1.25 5.892 5.892 0 0 0-2.284-.45 5.98 5.98 0 0 0-2.317.45 5.739 5.739 0 0 0-1.883 1.25 5.985 5.985 0 0 0-1.267 1.884 5.792 5.792 0 0 0-.466 2.317v3.7c-.045.377-.189.66-.434.85a1.284 1.284 0 0 1-1.65-.034c-.255-.211-.383-.517-.383-.917l-.2-13.033a5.96 5.96 0 0 0-.5-2.283 6.032 6.032 0 0 0-1.25-1.833 5.804 5.804 0 0 0-1.833-1.234 5.57 5.57 0 0 0-2.217-.45 5.976 5.976 0 0 0-4.2 1.684 5.648 5.648 0 0 0-1.25 1.833c-.3.7-.45 1.46-.45 2.283v12.783c0 .078.011.172.034.284h-.034v.4zm44.054-4.1v.466c.088 2.245.59 4.35 1.5 6.318a17.53 17.53 0 0 0 3.617 5.166 17.696 17.696 0 0 0 5.216 3.55 16.889 16.889 0 0 0 6.3 1.467c.09.02.245.033.467.033.956 0 1.811-.15 2.567-.45a5.767 5.767 0 0 0 1.933-1.234 5.171 5.171 0 0 0 1.217-1.866 6.412 6.412 0 0 0 .416-2.317c0-.844-.155-1.622-.466-2.333a5.695 5.695 0 0 0-1.284-1.85 6.104 6.104 0 0 0-1.9-1.233 6.436 6.436 0 0 0-2.316-.484h-.233a5.578 5.578 0 0 1-1.984-.483 5.467 5.467 0 0 1-1.616-1.116 5.664 5.664 0 0 1-1.134-1.634 5.005 5.005 0 0 1-.467-1.966v-9.401c0-.822-.149-1.583-.45-2.283-.3-.7-.716-1.311-1.25-1.833a6.003 6.003 0 0 0-1.849-1.234 5.66 5.66 0 0 0-2.25-.45c-.8 0-1.567.15-2.3.45a6.25 6.25 0 0 0-1.934 1.234 5.849 5.849 0 0 0-1.317 1.833 5.397 5.397 0 0 0-.483 2.283v9.367zm24.489-8.5c0 .889.178 1.738.534 2.55a6.854 6.854 0 0 0 1.433 2.117c.6.6 1.305 1.077 2.117 1.433a6.371 6.371 0 0 0 2.583.533c.889 0 1.733-.178 2.533-.533a6.93 6.93 0 0 0 2.1-1.433 6.869 6.869 0 0 0 1.433-2.117 6.28 6.28 0 0 0 .534-2.55c0-.912-.178-1.772-.534-2.583a6.845 6.845 0 0 0-1.432-2.117 6.913 6.913 0 0 0-2.101-1.433 6.16 6.16 0 0 0-2.533-.534c-.911 0-1.772.178-2.583.534a6.83 6.83 0 0 0-2.117 1.433 6.83 6.83 0 0 0-1.433 2.117 6.352 6.352 0 0 0-.534 2.583" fill="#fff"/><path d="M947.857 144.715c-1.95.848-3.335 2.064-4.184 3.646a3.15 3.15 0 0 0-.421 1.554c0 .482.112.904.338 1.245.452.79 1.27 1.243 2.26 1.243.904 0 1.809-.424 2.516-1.33 1.243-1.807 2.6-2.543 4.946-2.543 1.046 0 2.006.255 2.825.763.822.482 1.243 1.187 1.243 2.064 0 .566-.14 1.017-.451 1.385-.536.678-1.385 1.214-2.6 1.582l-1.527.48c-2.683.934-4.633 1.782-6.132 2.91-1.836 1.33-2.77 3.026-2.77 5.089 0 2.289 1.075 4.295 2.854 5.682 1.697 1.326 4.042 2.089 6.446 2.089 1.694 0 3.305-.31 4.803-.931 1.668-.707 2.797-1.64 3.419-2.855a2.79 2.79 0 0 0 .312-1.243c0-.566-.197-1.075-.621-1.526-.51-.566-1.131-.848-1.838-.848a2.05 2.05 0 0 0-.932.197l-1.131.848c-.537.368-.904.622-1.075.707a4.949 4.949 0 0 1-2.543.707c-2.403 0-4.041-.934-4.041-2.657 0-.82.45-1.5 1.385-2.091.792-.481 1.809-.877 3.42-1.358 2.628-.82 4.492-1.553 5.936-2.684 1.694-1.33 2.542-3.081 2.542-5.256 0-2.233-.99-4.212-2.713-5.682-1.724-1.47-4.098-2.318-6.783-2.318-1.978 0-3.816.368-5.483 1.13m20.058.001c-.565.565-.849 1.216-.849 1.979v21.027c0 .82.284 1.469.85 2.007.593.536 1.242.819 2.005.819.821 0 1.47-.283 1.98-.82a2.823 2.823 0 0 0 .792-2.006v-21.027c0-1.583-1.215-2.798-2.798-2.798-.763 0-1.443.282-1.98.819m-.254 29.704c-.622.62-.933 1.357-.933 2.205 0 .876.311 1.61.933 2.23.593.596 1.328.905 2.204.905.877 0 1.612-.31 2.204-.904.623-.621.933-1.355.933-2.231 0-.848-.31-1.584-.933-2.205-.592-.593-1.327-.905-2.204-.905-.876 0-1.61.312-2.204.905m28.909-27.81v10.853c-.028 2.289-.565 4.097-1.611 5.426-1.102 1.357-2.572 2.035-4.437 2.035-1.893 0-3.561-.735-4.72-2.091-1.16-1.358-1.865-3.194-1.865-5.23v-10.908c0-1.583-1.216-2.798-2.798-2.798a2.74 2.74 0 0 0-1.98.819c-.565.565-.847 1.216-.847 1.979v21.027c0 .82.282 1.469.848 2.007.595.536 1.244.819 2.007.819.82 0 1.469-.283 1.978-.82a2.82 2.82 0 0 0 .792-2.006v-.396c2.119 2.035 4.606 3.193 7.207 3.193 3.249 0 6.019-1.328 7.969-3.701 1.95-2.347 3.052-5.625 3.052-9.355v-10.853c0-1.583-1.214-2.77-2.796-2.77-1.584 0-2.8 1.187-2.8 2.77m13.388.848c-2.516 2.401-4.013 5.821-4.013 9.468v.027c0 .029 0 .029.028.029v.029c-.028 0-.028 0-.028.027 0 3.703 1.497 7.066 4.013 9.581 2.486 2.488 5.906 3.956 9.61 3.956 3.589 0 6.924-1.27 9.186-3.617.648-.649 1.016-1.413 1.046-2.231 0-.821-.313-1.527-.906-2.065-.621-.537-1.243-.819-1.893-.819-.877 0-1.667.509-2.571 1.216-1.583 1.271-3.25 1.809-5.2 1.809-2.065 0-4.015-.962-5.4-2.46-1.355-1.47-2.118-3.391-2.118-5.314l-.03-.056.03-.027c0-1.923.763-3.817 2.09-5.258 1.357-1.497 3.194-2.43 5.258-2.459 2.035-.084 3.758.424 5.37 1.809.903.707 1.693 1.187 2.514 1.187.679 0 1.329-.283 1.95-.819a2.642 2.642 0 0 0 .906-2.036c-.03-.819-.398-1.582-1.046-2.232-2.262-2.346-5.597-3.618-9.186-3.618-3.703 0-7.123 1.414-9.61 3.873m43.544 11.728c-.424 1.724-1.357 3.222-2.686 4.268-1.384 1.102-3.137 1.695-4.973 1.695-1.894 0-3.534-.564-4.919-1.695-1.326-1.102-2.26-2.572-2.628-4.268h15.206zm-17.297-11.672a13.357 13.357 0 0 0-3.984 9.524 13.42 13.42 0 0 0 3.984 9.553 13.537 13.537 0 0 0 9.553 3.928c3.617 0 6.981-1.441 9.495-3.9 2.516-2.458 4.015-5.822 4.042-9.439 0-1.583-1.158-2.685-2.77-2.685h-18.058a7.71 7.71 0 0 1 2.683-3.956c1.273-1.019 2.912-1.555 4.608-1.555 2.177 0 3.844.678 5.058 2.006.594.481 1.216.707 1.866.707.311 0 .621-.056.932-.17.537-.198.991-.593 1.357-1.187a2.892 2.892 0 0 0 .481-1.583c0-.819-.368-1.526-1.074-2.118-1.018-.934-2.119-1.668-3.335-2.15-1.499-.593-3.279-.904-5.285-.904a13.538 13.538 0 0 0-9.553 3.929m45.092-2.769c-.565.537-.848 1.187-.848 2.006v25.52l-1.668-1.016a3.486 3.486 0 0 0-1.667-.424c-.933 0-1.78.452-2.26 1.272a2.797 2.797 0 0 0-.424 1.497c0 .227.027.454.084.678.17.736.595 1.329 1.301 1.753l5.85 3.589c.451.255.876.367 1.3.396.027.027.112.027.197.027h.171c1.582 0 2.74-1.243 2.74-2.854V146.75c0-1.611-1.158-2.854-2.74-2.854-.764 0-1.443.283-2.036.848m27.269 18.624a6.798 6.798 0 0 1 1.978 4.805c0 1.808-.735 3.505-1.978 4.775-1.272 1.244-2.97 1.98-4.805 1.98-1.893 0-3.59-.736-4.833-1.98a6.776 6.776 0 0 1-1.977-4.775c0-1.894.733-3.562 1.977-4.805 1.243-1.272 2.94-2.006 4.833-2.006 1.836 0 3.533.734 4.805 2.006m-5.738-19.727c-.48 0-.96.113-1.441.367-.904.538-1.414 1.443-1.414 2.374 0 .538.17 1.046.48 1.584l4.298 7.94c-.48-.027-.848-.056-1.075-.056-3.305 0-6.358 1.33-8.62 3.59a12.185 12.185 0 0 0-3.561 8.647c0 3.308 1.3 6.36 3.56 8.62a12.116 12.116 0 0 0 8.62 3.561c3.309 0 6.36-1.299 8.62-3.56a12.087 12.087 0 0 0 3.59-8.62c0-2.234-.593-4.352-1.78-6.359l-.057-.114-8.732-16.476c-.424-.707-1.018-1.188-1.725-1.385a3.239 3.239 0 0 0-.763-.113m33.51 19.727a6.794 6.794 0 0 1 1.978 4.805c0 1.808-.734 3.505-1.978 4.775a6.846 6.846 0 0 1-4.805 1.98c-1.893 0-3.588-.736-4.833-1.98a6.78 6.78 0 0 1-1.977-4.775 6.7 6.7 0 0 1 1.977-4.805c1.245-1.272 2.94-2.006 4.833-2.006 1.838 0 3.534.734 4.805 2.006m-5.737-19.727c-.48 0-.96.113-1.442.367-.904.538-1.413 1.443-1.413 2.374 0 .538.17 1.046.48 1.584l4.298 7.94c-.48-.027-.849-.056-1.076-.056-3.305 0-6.357 1.33-8.62 3.59a12.184 12.184 0 0 0-3.56 8.647c0 3.308 1.3 6.36 3.56 8.62a12.118 12.118 0 0 0 8.62 3.561 12.11 12.11 0 0 0 8.62-3.56 12.087 12.087 0 0 0 3.59-8.62c0-2.234-.593-4.352-1.78-6.359l-.057-.114-8.732-16.476c-.425-.707-1.019-1.188-1.726-1.385a3.24 3.24 0 0 0-.762-.113m18.786.254c-.82 0-1.499.283-2.035.875-.538.595-.819 1.273-.792 2.064v.254c0 .086 0 .171.03.227.055.452.253.848.565 1.214l.197.2 13.593 14.47.03.027.168.198c.99 1.046 1.724 1.95 2.205 2.657.876 1.329 1.33 2.545 1.33 3.59 0 1.583-.652 2.968-1.783 3.872-1.102.905-2.543 1.414-4.098 1.414-1.47 0-2.854-.453-3.9-1.245-1.102-.82-1.836-1.978-2.063-3.335 0-.142 0-.254-.028-.31-.31-1.556-1.329-2.346-2.685-2.346-1.723 0-2.742 1.102-2.742 2.713 0 .225 0 .395.03.537.14 2.233 1.384 4.522 3.333 6.33 2.037 1.837 4.805 2.997 7.97 2.997 3.363 0 6.247-.961 8.281-2.742 2.064-1.836 3.251-4.466 3.251-7.603 0-1.81-.396-3.533-1.16-5.2-.819-1.694-2.118-3.447-3.9-5.256l-9.693-9.977h12.265c1.611 0 2.855-1.187 2.855-2.77 0-1.611-1.244-2.854-2.855-2.854h-18.369zM469.517 57.582h14.185l-7.234 17.473-6.951-17.473zm26.114-29.026h-37.668L450.54 9.957c-.75-1.941-1.847-3.569-3.288-4.884a13.947 13.947 0 0 0-4.837-2.913 16.084 16.084 0 0 0-5.636-.892c-1.973.031-3.898.454-5.777 1.268-1.942.814-3.539 1.909-4.79 3.288a12.722 12.722 0 0 0-2.725 4.651c-.563 1.72-.799 3.536-.704 5.447.094 1.909.578 3.805 1.456 5.682l39.734 91.023c1.252 2.819 3.037 4.994 5.355 6.529 2.315 1.534 4.978 2.302 7.984 2.302 2.818 0 5.385-.752 7.702-2.255 2.316-1.503 4.07-3.664 5.261-6.481l39.076-91.023c.813-1.879 1.284-3.773 1.41-5.683.125-1.911-.078-3.727-.61-5.449a12.973 12.973 0 0 0-2.63-4.697c-1.222-1.408-2.772-2.52-4.65-3.334-1.878-.814-3.79-1.237-5.73-1.268a14.923 14.923 0 0 0-5.543.939c-1.754.657-3.35 1.645-4.79 2.959-1.442 1.315-2.6 2.913-3.477 4.791l-7.702 18.599zm89.047 15.594c-7.453 1.314-14.028 3.035-19.727 5.166-5.699 2.128-10.459 4.773-14.277 7.937-3.82 3.161-6.702 6.873-8.642 11.131-1.942 4.258-2.912 9.142-2.912 14.654 0 5.51 1.111 10.661 3.334 15.452a38.522 38.522 0 0 0 9.206 12.493c3.913 3.538 8.501 6.31 13.762 8.313 5.26 2.004 10.957 3.006 17.095 3.006 3.76 0 7.515-.376 11.272-1.127a50.953 50.953 0 0 0 10.71-3.38c3.381-1.504 6.45-3.369 9.204-5.59 2.756-2.225 5.01-4.807 6.764-7.749.814-1.317 1.3-2.695 1.456-4.134a13.295 13.295 0 0 0-.188-4.18 12.237 12.237 0 0 0-1.455-3.758c-.69-1.159-1.473-2.145-2.349-2.959-.94-1.003-2.113-1.832-3.524-2.489a14.653 14.653 0 0 0-4.555-1.267c-1.629-.189-3.303-.095-5.025.28-1.723.377-3.367 1.096-4.932 2.162-1.629.687-2.958 1.346-3.992 1.972a25.914 25.914 0 0 1-3.194 1.644c-1.095.47-2.395.845-3.898 1.127-1.503.281-3.476.423-5.918.423-2.694 0-4.964-.282-6.81-.846-1.848-.563-3.367-1.314-4.555-2.255-1.192-.939-2.037-2.004-2.537-3.193a9.34 9.34 0 0 1-.75-3.663c0-1.817.452-3.274 1.361-4.369.907-1.096 2.394-2.019 4.461-2.77 2.067-.752 4.727-1.44 7.985-2.067 3.255-.627 7.233-1.379 11.93-2.254a65.249 65.249 0 0 0 11.975-3.429c3.913-1.535 7.422-3.616 10.522-6.247 3.1-2.63 5.604-5.902 7.515-9.815 1.91-3.915 2.864-8.596 2.864-14.044 0-5.072-1.096-9.927-3.286-14.56-2.195-4.636-5.262-8.72-9.206-12.259-3.946-3.538-8.674-6.34-14.185-8.407C594.667 1.033 588.591 0 581.953 0c-5.009 0-9.768.642-14.277 1.925-4.51 1.284-8.627 3.006-12.352 5.166-3.728 2.161-6.999 4.698-9.817 7.61-2.818 2.911-5.01 5.964-6.575 9.158-1.128 2.315-1.77 4.493-1.926 6.528-.157 2.034.062 3.9.657 5.59a12.666 12.666 0 0 0 2.678 4.461 17.542 17.542 0 0 0 4.04 3.241c3.693 2.003 7.122 2.443 10.285 1.315 3.161-1.126 6.403-3.757 9.722-7.89a37.652 37.652 0 0 1 3.945-3.617 19.876 19.876 0 0 1 4.18-2.536 20.82 20.82 0 0 1 4.791-1.456c1.722-.315 3.646-.469 5.777-.469 1.878 0 3.71.186 5.495.563 1.785.375 3.366.908 4.745 1.597 1.376.69 2.488 1.486 3.334 2.396.845.907 1.268 1.924 1.268 3.052 0 1.315-.408 2.396-1.222 3.242-.814.844-1.863 1.55-3.146 2.112-1.284.563-2.709 1.002-4.274 1.315-1.566.313-3.1.595-4.603.846m96.374.001c-7.453 1.314-14.028 3.035-19.727 5.166-5.699 2.128-10.459 4.773-14.278 7.937-3.82 3.161-6.7 6.873-8.64 11.131-1.943 4.258-2.914 9.142-2.914 14.654 0 5.51 1.112 10.661 3.335 15.452a38.52 38.52 0 0 0 9.205 12.493c3.914 3.538 8.501 6.31 13.762 8.313 5.261 2.004 10.958 3.006 17.096 3.006 3.76 0 7.515-.376 11.272-1.127a50.972 50.972 0 0 0 10.71-3.38c3.381-1.504 6.45-3.369 9.204-5.59 2.756-2.225 5.01-4.807 6.763-7.749.814-1.317 1.3-2.695 1.457-4.134a13.355 13.355 0 0 0-.188-4.18 12.237 12.237 0 0 0-1.455-3.758c-.69-1.159-1.473-2.145-2.349-2.959-.94-1.003-2.114-1.832-3.524-2.489a14.653 14.653 0 0 0-4.555-1.267c-1.629-.189-3.304-.095-5.025.28-1.723.377-3.367 1.096-4.932 2.162-1.629.687-2.958 1.346-3.992 1.972a25.985 25.985 0 0 1-3.194 1.644c-1.095.47-2.395.845-3.898 1.127-1.503.281-3.476.423-5.918.423-2.694 0-4.964-.282-6.81-.846-1.848-.563-3.367-1.314-4.556-2.255-1.19-.939-2.036-2.004-2.536-3.193a9.34 9.34 0 0 1-.75-3.663c0-1.817.452-3.274 1.361-4.369.907-1.096 2.394-2.019 4.461-2.77 2.067-.752 4.727-1.44 7.985-2.067 3.255-.627 7.233-1.379 11.93-2.254a65.249 65.249 0 0 0 11.975-3.429c3.913-1.535 7.422-3.616 10.522-6.247 3.1-2.63 5.603-5.902 7.515-9.815 1.91-3.915 2.864-8.596 2.864-14.044 0-5.072-1.096-9.927-3.286-14.56-2.195-4.636-5.262-8.72-9.207-12.259-3.946-3.538-8.674-6.34-14.184-8.407C691.041 1.033 684.964 0 678.327 0c-5.01 0-9.768.642-14.278 1.925-4.509 1.284-8.627 3.006-12.352 5.166-3.726 2.161-6.999 4.698-9.816 7.61-2.817 2.911-5.01 5.964-6.576 9.158-1.126 2.315-1.769 4.493-1.925 6.528-.157 2.034.062 3.9.657 5.59a12.666 12.666 0 0 0 2.678 4.461 17.537 17.537 0 0 0 4.038 3.241c3.695 2.003 7.123 2.443 10.286 1.315 3.162-1.126 6.403-3.757 9.723-7.89a37.652 37.652 0 0 1 3.945-3.617 19.876 19.876 0 0 1 4.18-2.536 20.82 20.82 0 0 1 4.791-1.456c1.722-.315 3.646-.469 5.777-.469 1.878 0 3.71.186 5.495.563 1.785.375 3.366.908 4.744 1.597 1.377.69 2.49 1.486 3.335 2.396.845.907 1.268 1.924 1.268 3.052 0 1.315-.408 2.396-1.222 3.242-.814.844-1.864 1.55-3.146 2.112-1.284.563-2.709 1.002-4.274 1.315-1.566.313-3.1.595-4.603.846m86.605-28.65c0-2.004-.376-3.884-1.128-5.636a13.973 13.973 0 0 0-3.1-4.556c-1.314-1.284-2.864-2.287-4.65-3.005-1.783-.721-3.68-1.081-5.682-1.081-2.005 0-3.883.36-5.636 1.081a14.252 14.252 0 0 0-4.603 3.005 14.002 14.002 0 0 0-3.1 4.556c-.75 1.752-1.127 3.632-1.127 5.636v91.681c0 2.004.377 3.865 1.128 5.589a14.153 14.153 0 0 0 3.099 4.508 14.981 14.981 0 0 0 4.603 3.053c1.753.751 3.63 1.128 5.636 1.128 2.003 0 3.899-.377 5.683-1.128 1.785-.752 3.335-1.77 4.649-3.053a14.124 14.124 0 0 0 3.1-4.508c.752-1.724 1.128-3.585 1.128-5.589V15.499zm63.214 28.651c-7.452 1.314-14.028 3.035-19.726 5.166-5.699 2.128-10.459 4.773-14.278 7.937-3.82 3.161-6.7 6.873-8.642 11.131-1.94 4.258-2.912 9.142-2.912 14.654 0 5.51 1.112 10.661 3.335 15.452a38.52 38.52 0 0 0 9.205 12.493c3.914 3.538 8.501 6.31 13.762 8.313 5.26 2.004 10.958 3.006 17.096 3.006 3.758 0 7.515-.376 11.272-1.127a50.972 50.972 0 0 0 10.71-3.38c3.381-1.504 6.45-3.369 9.204-5.59 2.756-2.225 5.01-4.807 6.763-7.749.814-1.317 1.3-2.695 1.457-4.134a13.355 13.355 0 0 0-.188-4.18 12.237 12.237 0 0 0-1.455-3.758c-.692-1.159-1.473-2.145-2.349-2.959-.94-1.003-2.114-1.832-3.524-2.489a14.653 14.653 0 0 0-4.555-1.267c-1.629-.189-3.304-.095-5.025.28-1.723.377-3.367 1.096-4.932 2.162-1.629.687-2.958 1.346-3.992 1.972a25.985 25.985 0 0 1-3.194 1.644c-1.095.47-2.395.845-3.898 1.127-1.503.281-3.476.423-5.918.423-2.694 0-4.964-.282-6.81-.846-1.848-.563-3.367-1.314-4.556-2.255-1.19-.939-2.036-2.004-2.536-3.193a9.34 9.34 0 0 1-.75-3.663c0-1.817.453-3.274 1.362-4.369.907-1.096 2.394-2.019 4.46-2.77 2.067-.752 4.728-1.44 7.986-2.067 3.255-.627 7.233-1.379 11.93-2.254a65.249 65.249 0 0 0 11.975-3.429c3.913-1.535 7.422-3.616 10.522-6.247 3.099-2.63 5.603-5.902 7.515-9.815 1.909-3.915 2.864-8.596 2.864-14.044 0-5.072-1.096-9.927-3.287-14.56-2.194-4.636-5.261-8.72-9.206-12.259-3.946-3.538-8.674-6.34-14.184-8.407C840.86 1.033 834.785 0 828.148 0c-5.01 0-9.768.642-14.278 1.925-4.51 1.284-8.627 3.006-12.352 5.166-3.726 2.161-7 4.698-9.816 7.61-2.818 2.911-5.011 5.964-6.576 9.158-1.126 2.315-1.77 4.493-1.925 6.528-.157 2.034.062 3.9.657 5.59a12.666 12.666 0 0 0 2.678 4.461 17.537 17.537 0 0 0 4.038 3.241c3.695 2.003 7.123 2.443 10.286 1.315 3.162-1.126 6.403-3.757 9.723-7.89a37.746 37.746 0 0 1 3.944-3.617 19.908 19.908 0 0 1 4.18-2.536 20.82 20.82 0 0 1 4.791-1.456c1.722-.315 3.646-.469 5.777-.469 1.879 0 3.71.186 5.495.563 1.786.375 3.367.908 4.745 1.597 1.376.69 2.489 1.486 3.335 2.396.845.907 1.267 1.924 1.267 3.052 0 1.315-.407 2.396-1.221 3.242-.814.844-1.864 1.55-3.146 2.112-1.284.563-2.71 1.002-4.274 1.315-1.566.313-3.1.595-4.604.846m109.055 48.376V15.5c0-2.004-.393-3.884-1.175-5.636-.783-1.754-1.83-3.273-3.145-4.557-1.317-1.283-2.867-2.286-4.652-3.005-1.783-.72-3.678-1.08-5.68-1.08-2.007 0-3.838.36-5.496 1.08a13.588 13.588 0 0 0-4.369 3.005c-1.254 1.284-2.224 2.803-2.912 4.557-.69 1.752-1.033 3.632-1.033 5.636v77.026h-18.599c-2.005 0-3.884.375-5.636 1.128-1.754.751-3.273 1.784-4.556 3.1-1.284 1.314-2.3 2.865-3.053 4.65a14.5 14.5 0 0 0-1.128 5.682c0 2.003.377 3.882 1.128 5.636.752 1.753 1.77 3.272 3.053 4.556 1.283 1.282 2.802 2.301 4.556 3.053 1.752.751 3.631 1.128 5.636 1.128h64.72c2.004 0 3.883-.393 5.637-1.175a15.195 15.195 0 0 0 4.602-3.148 14.366 14.366 0 0 0 3.1-4.649c.752-1.784 1.128-3.68 1.128-5.683 0-2.005-.376-3.867-1.128-5.589a14.096 14.096 0 0 0-3.1-4.508 14.911 14.911 0 0 0-4.602-3.053c-1.754-.753-3.633-1.128-5.637-1.128h-17.659zm67.916-34.943h14.184l-7.233 17.473-6.95-17.473zm26.113-29.026H996.29l-7.42-18.599c-.753-1.941-1.849-3.569-3.289-4.884a13.947 13.947 0 0 0-4.837-2.913 16.084 16.084 0 0 0-5.636-.892c-1.973.031-3.899.454-5.778 1.268-1.94.814-3.538 1.909-4.79 3.288a12.706 12.706 0 0 0-2.724 4.651c-.564 1.72-.798 3.536-.704 5.447.093 1.909.578 3.805 1.456 5.682l39.734 91.023c1.252 2.819 3.036 4.994 5.355 6.529 2.315 1.534 4.978 2.302 7.984 2.302 2.817 0 5.385-.752 7.702-2.255 2.316-1.503 4.07-3.664 5.261-6.481l39.076-91.023c.813-1.879 1.283-3.773 1.41-5.683.124-1.911-.08-3.727-.61-5.449a12.978 12.978 0 0 0-2.632-4.697c-1.22-1.408-2.77-2.52-4.65-3.334-1.878-.814-3.789-1.237-5.73-1.268a14.921 14.921 0 0 0-5.54.939c-1.755.657-3.353 1.645-4.792 2.959-1.442 1.315-2.6 2.913-3.476 4.791l-7.703 18.599zm78.341 35.977V15.5c0-2.004-.375-3.884-1.127-5.636a14.004 14.004 0 0 0-3.1-4.557c-1.315-1.283-2.865-2.286-4.649-3.004a15.053 15.053 0 0 0-5.684-1.082c-2.005 0-3.883.361-5.636 1.082a14.266 14.266 0 0 0-4.603 3.004 14.017 14.017 0 0 0-3.099 4.557c-.75 1.752-1.127 3.632-1.127 5.636v91.211c0 2.003.376 3.882 1.127 5.636a14.044 14.044 0 0 0 3.1 4.556 14.318 14.318 0 0 0 4.602 3.005c1.753.72 3.631 1.08 5.636 1.08h.19c.811 0 1.69-.093 2.628-.28a14.435 14.435 0 0 0 5.543-2.302 14.566 14.566 0 0 0 4.133-4.275l41.707-56.642v49.691c0 2.004.39 3.882 1.174 5.636a14.237 14.237 0 0 0 3.194 4.556 14.738 14.738 0 0 0 4.697 3.006 15.058 15.058 0 0 0 5.682 1.081c2.005 0 3.866-.362 5.59-1.08a13.931 13.931 0 0 0 4.508-3.007c1.284-1.284 2.301-2.803 3.053-4.556.751-1.754 1.128-3.632 1.128-5.636V15.5c0-3.257-.94-6.106-2.818-8.548-1.879-2.442-4.29-4.134-7.234-5.072a14.092 14.092 0 0 0-1.832-.47 10.619 10.619 0 0 0-2.018-.189h-.846c-2.006 0-3.867.376-5.59 1.128a14.489 14.489 0 0 0-4.508 3.053 14.487 14.487 0 0 0-3.053 4.51c-.75 1.721-1.127 3.584-1.127 5.588v41.99l24.422-33.16c1.19-1.817 1.941-3.867 2.255-6.152.312-2.289.236-4.51-.235-6.67-.47-2.16-1.33-4.12-2.583-5.87-1.254-1.755-2.88-3.006-4.885-3.758a20.553 20.553 0 0 0-1.879-.47 9.904 9.904 0 0 0-1.97-.189h-.847c-.94.062-1.942.22-3.006.471a16.891 16.891 0 0 0-3.146 1.08 18.44 18.44 0 0 0-2.959 1.691c-.94.657-1.692 1.423-2.256 2.3l-42.552 57.771zm141.466 27.992V15.5c0-2.004-.392-3.884-1.174-5.636-.783-1.754-1.832-3.273-3.146-4.557-1.316-1.283-2.866-2.286-4.65-3.005-1.785-.72-3.679-1.08-5.683-1.08-2.005 0-3.837.36-5.495 1.08a13.588 13.588 0 0 0-4.369 3.005c-1.254 1.284-2.223 2.803-2.91 4.557-.692 1.752-1.035 3.632-1.035 5.636v77.026h-18.599c-2.005 0-3.883.375-5.636 1.128-1.754.751-3.273 1.784-4.556 3.1-1.283 1.314-2.3 2.865-3.053 4.65a14.5 14.5 0 0 0-1.128 5.682c0 2.003.377 3.882 1.128 5.636.752 1.753 1.77 3.272 3.053 4.556 1.283 1.282 2.802 2.301 4.556 3.053 1.753.751 3.631 1.128 5.636 1.128h64.721c2.003 0 3.883-.393 5.636-1.175a15.195 15.195 0 0 0 4.602-3.148c1.316-1.314 2.35-2.864 3.1-4.649.752-1.784 1.128-3.68 1.128-5.683 0-2.005-.376-3.867-1.128-5.589a14.08 14.08 0 0 0-3.1-4.508 14.911 14.911 0 0 0-4.602-3.053c-1.753-.753-3.633-1.128-5.636-1.128h-17.66z" fill="#507e8d"/></g></svg>