<svg xmlns="http://www.w3.org/2000/svg" viewBox="0 0 489.89999 440" width="489.9" height="440"><g fill="#7cb342"><path d="M389.9 48h-90.7V0H28.1C12.5 0 0 12.5 0 28.2v302.3c0 15.6 12.5 28.1 28.1 28.1h32.6c-.9 4.4-1.3 8.9-1.3 13.6 0 37.5 30.2 67.8 67.8 67.8 37.5 0 68.8-31.3 67.8-67.8 0-4.3-.4-8.5-1.2-12.5h124.3c-.8 4.1-1.2 8.2-1.2 12.5 0 37.5 30.2 67.8 67.8 67.8 37.6 0 67.8-31.3 67.8-67.8 0-4.3-.4-8.5-1.2-12.5h10.5c15.6 0 28.1-13.6 28.1-29.2V192.9L389.9 48zm-10.4 19.8l81.3 117.8H300.3V67.8h79.2zM127.2 419.1c-26.1 0-48-21.9-48-48s21.9-48 48-48c27.1 0 48 21.9 48 48-.1 26.1-21.9 48-48 48zm59-80.2c-11.6-20.6-33.6-34.4-59-34.4-25 0-46.7 13.4-58.4 33.4H28.1c-4.2 0-7.3-3.1-7.3-7.3V28.2c0-4.2 3.1-7.3 7.3-7.3h251.3v318h-93.2zm198.5 80.2c-26.1 0-48-21.9-48-48s21.9-48 48-48 48 21.9 48 48-21.9 48-48 48zm77.2-80.2h-18.1c-11.6-20.6-33.6-34.4-59-34.4s-47.4 13.8-59 34.4h-25.4V206.4h169.9v124.1c-.1 4.2-4.3 8.4-8.4 8.4z"/><path d="M53.2 165.8H246V83.4H53.2v82.4zM74 104.3h152.2V146H74v-41.7z"/></g></svg>