<svg xmlns="http://www.w3.org/2000/svg" viewBox="0 0 512.00098 385.98599" width="512.001" height="385.986"><path d="M500.511 196.883a7.001 7.001 0 0 1 0 14.003h-29.042a7 7 0 0 1-7-7.002 7 7 0 0 1 7-7.001h29.042z" fill="#4e9d2d"/><path d="M503.361 0h-71.564c-4.701 0-8.515 3.755-8.628 8.427H88.831C88.717 3.754 84.902 0 80.203 0H8.639A8.64 8.64 0 0 0 0 8.639v368.708a8.64 8.64 0 0 0 8.639 8.639H67.78a8.64 8.64 0 0 0 8.616-9.277c-.003-6.837-.074-13.519-.196-20.067h359.602c-.126 6.751-.196 13.647-.196 20.705a8.639 8.639 0 0 0 8.639 8.639h59.117a8.639 8.639 0 0 0 8.639-8.639V8.639A8.64 8.64 0 0 0 503.361 0zm-82.056 25.706a757.332 757.332 0 0 0-1.204 11.025H91.899a743.667 743.667 0 0 0-1.202-11.025h330.608zM17.277 17.278h55.024c.151 1.302.323 2.74.514 4.333 2.224 18.6 6.363 53.221 2.918 88.331-3.954 40.296-16.75 68.976-38.043 85.303H17.277V17.278zm0 351.431V212.523h19.127c11.26 16.439 22.01 69.25 22.679 156.187H17.277zm229.436-29.343H75.734c-2.316-64.1-10.62-111.805-23.377-133.791 22.742-19.67 36.377-51.218 40.569-93.945 2.004-20.426 1.593-40.497.437-57.623h153.35v285.359zm189.555 0H263.99V54.008h154.647c-1.156 17.126-1.566 37.197.438 57.623 4.193 42.726 17.828 74.275 40.569 93.945-12.758 21.985-21.06 69.69-23.376 133.79zm58.455 29.343h-41.808c.669-86.937 11.42-139.748 22.679-156.187h19.127v156.187h.002zm0-173.464H474.31c-21.293-16.328-34.088-45.006-38.042-85.303-3.445-35.11.695-69.731 2.918-88.331.19-1.593.362-3.032.514-4.333h55.024l-.001 177.967z" fill="#7cb342"/></svg>